<svg viewBox="0 0 477 298" fill="none" xmlns="http://www.w3.org/2000/svg">
<g clip-path="url(#clip0_40_15861)">
<path d="M124.664 181.614C174.782 181.614 215.41 140.958 215.41 90.8069C215.41 40.6556 174.782 0 124.664 0C74.5455 0 33.9168 40.6556 33.9168 90.8069C33.9168 140.958 74.5455 181.614 124.664 181.614Z" fill="#F2F2F2"/>
<path d="M0 21.8032C0 54.8424 20.7133 81.5772 46.311 81.5772L0 21.8032Z" fill="#2F2E41"/>
<path d="M46.311 81.5772C46.311 48.1668 69.4259 21.1316 97.9915 21.1316L46.311 81.5772Z" fill="#6C63FF"/>
<path d="M16.7794 24.7983C16.7794 56.182 29.9879 81.5773 46.311 81.5773L16.7794 24.7983Z" fill="#6C63FF"/>
<path d="M46.311 81.5772C46.311 38.8861 73.0282 4.34106 106.046 4.34106L46.311 81.5772Z" fill="#2F2E41"/>
<path d="M36.5684 81.9987C36.5684 81.9987 43.1361 81.7963 45.1154 80.3859C47.0947 78.9755 55.2181 77.2914 55.7091 79.5534C56.2002 81.8153 65.5791 90.8033 58.1642 90.8632C50.7494 90.923 40.9354 89.7074 38.9599 88.5032C36.9844 87.2991 36.5684 81.9987 36.5684 81.9987Z" fill="#A8A8A8"/>
<path opacity="0.2" d="M58.2966 90.0756C50.8817 90.1355 41.0677 88.9199 39.0922 87.7157C37.5878 86.7987 36.9882 83.5081 36.7876 81.99C36.6487 81.996 36.5684 81.9985 36.5684 81.9985C36.5684 81.9985 36.9844 87.2989 38.9599 88.5031C40.9354 89.7072 50.7494 90.9228 58.1643 90.863C60.3046 90.8457 61.044 90.0837 61.0034 88.9551C60.706 89.637 59.8897 90.0627 58.2966 90.0756Z" fill="black"/>
<path d="M84.6157 191.82C128.616 191.82 164.285 186.964 164.285 180.974C164.285 174.984 128.616 170.129 84.6157 170.129C40.6153 170.129 4.94595 174.984 4.94595 180.974C4.94595 186.964 40.6153 191.82 84.6157 191.82Z" fill="#3F3D56"/>
<path opacity="0.1" d="M84.6157 190.08C121.557 190.08 151.504 186.003 151.504 180.974C151.504 175.945 121.557 171.869 84.6157 171.869C47.6742 171.869 17.7272 175.945 17.7272 180.974C17.7272 186.003 47.6742 190.08 84.6157 190.08Z" fill="black"/>
<path d="M356.43 298C423.019 298 477 290.651 477 281.587C477 272.522 423.019 265.173 356.43 265.173C289.841 265.173 235.86 272.522 235.86 281.587C235.86 290.651 289.841 298 356.43 298Z" fill="#3F3D56"/>
<path d="M132.332 285.051C172.333 285.051 204.759 280.637 204.759 275.192C204.759 269.746 172.333 265.332 132.332 265.332C92.332 265.332 59.9053 269.746 59.9053 275.192C59.9053 280.637 92.332 285.051 132.332 285.051Z" fill="#3F3D56"/>
<path d="M197.091 266.878C235.434 276.684 309.14 254.089 317.234 228.509" stroke="#2F2E41" stroke-width="2" stroke-miterlimit="10"/>
<path d="M131.906 110.418C131.906 110.418 187.292 95.0702 190.7 144.524C194.108 193.977 145.114 208.046 183.457 217.851" stroke="#2F2E41" stroke-width="2" stroke-miterlimit="10"/>
<path d="M78.3965 229.056C78.3965 229.056 95.0429 224.444 96.0673 239.307C97.0917 254.171 82.366 258.399 93.8905 261.346" stroke="#2F2E41" stroke-width="2" stroke-miterlimit="10"/>
<path d="M331.761 240.122L328.404 261.564C328.404 261.564 311.882 270.348 323.499 270.606C335.117 270.864 389.848 270.606 389.848 270.606C389.848 270.606 400.433 270.606 383.652 261.306L380.296 238.831L331.761 240.122Z" fill="#969696"/>
<path opacity="0.1" d="M321.162 270.373C323.801 268.024 328.404 265.576 328.404 265.576L331.761 244.134L380.296 244.18L383.652 265.318C387.565 267.487 389.989 269.149 391.408 270.425C393.563 269.933 395.918 268.104 383.652 261.306L380.296 238.831L331.761 240.122L328.404 261.564C328.404 261.564 314.52 268.946 321.162 270.373Z" fill="black"/>
<path d="M457.415 90.6741H254.125C249.879 90.6741 246.436 94.1185 246.436 98.3674V235.4C246.436 239.649 249.879 243.093 254.125 243.093H457.415C461.661 243.093 465.104 239.649 465.104 235.4V98.3674C465.104 94.1185 461.661 90.6741 457.415 90.6741Z" fill="#969696"/>
<path d="M457.746 98.8118H253.794V212.997H457.746V98.8118Z" fill="#3F3D56"/>
<path d="M355.77 96.4867C356.483 96.4867 357.061 95.9084 357.061 95.195C357.061 94.4816 356.483 93.9033 355.77 93.9033C355.057 93.9033 354.479 94.4816 354.479 95.195C354.479 95.9084 355.057 96.4867 355.77 96.4867Z" fill="#F2F2F2"/>
<path d="M465.104 222.039V235.4C465.104 236.41 464.905 237.411 464.519 238.344C464.132 239.277 463.566 240.126 462.852 240.84C462.138 241.554 461.291 242.121 460.358 242.508C459.425 242.894 458.425 243.093 457.415 243.093H254.125C253.115 243.093 252.115 242.894 251.182 242.508C250.25 242.121 249.402 241.554 248.688 240.84C247.974 240.126 247.408 239.277 247.021 238.344C246.635 237.411 246.436 236.41 246.436 235.4V222.039H465.104Z" fill="#969696"/>
<path d="M412.825 284.556V287.14H273.931V285.073L274.122 284.556L277.546 275.256H409.985L412.825 284.556Z" fill="#969696"/>
<path d="M466.276 282.027C466.023 283.109 465.067 284.251 462.909 285.331C455.164 289.206 439.416 284.298 439.416 284.298C439.416 284.298 427.282 282.231 427.282 276.806C427.623 276.573 427.978 276.361 428.346 276.173C431.602 274.449 442.399 270.196 461.542 276.353C462.952 276.796 464.212 277.622 465.181 278.739C465.957 279.648 466.565 280.801 466.276 282.027Z" fill="#969696"/>
<path opacity="0.1" d="M466.276 282.027C456.796 285.662 448.346 285.933 439.674 279.906C435.301 276.868 431.328 276.116 428.346 276.173C431.602 274.449 442.399 270.196 461.542 276.353C462.952 276.796 464.212 277.622 465.181 278.739C465.957 279.648 466.565 280.801 466.276 282.027Z" fill="black"/>
<path d="M454.39 279.906C456.243 279.906 457.746 279.444 457.746 278.873C457.746 278.302 456.243 277.84 454.39 277.84C452.536 277.84 451.034 278.302 451.034 278.873C451.034 279.444 452.536 279.906 454.39 279.906Z" fill="#F2F2F2"/>
<path d="M355.77 237.539C358.479 237.539 360.675 235.341 360.675 232.631C360.675 229.92 358.479 227.722 355.77 227.722C353.061 227.722 350.865 229.92 350.865 232.631C350.865 235.341 353.061 237.539 355.77 237.539Z" fill="#F2F2F2"/>
<path opacity="0.1" d="M412.825 284.556V287.14H273.931V285.073L274.122 284.556H412.825Z" fill="black"/>
<path d="M134.889 67.7854H46.272V170.956H134.889V67.7854Z" fill="#2F2E41"/>
<path d="M143.836 57.5537H37.3251V94.2175H143.836V57.5537Z" fill="#3F3D56"/>
<path d="M143.836 101.039H37.3251V137.702H143.836V101.039Z" fill="#3F3D56"/>
<path d="M143.836 144.524H37.3251V181.187H143.836V144.524Z" fill="#3F3D56"/>
<path opacity="0.4" d="M122.533 63.9485H115.717V70.7697H122.533V63.9485Z" fill="#F20530"/>
<path opacity="0.8" d="M132.332 63.9485H125.516V70.7697H132.332V63.9485Z" fill="#F20530"/>
<path d="M142.131 63.9485H135.315V70.7697H142.131V63.9485Z" fill="#F20530"/>
<path opacity="0.4" d="M122.533 107.007H115.717V113.828H122.533V107.007Z" fill="#F20530"/>
<path opacity="0.8" d="M132.332 107.007H125.516V113.828H132.332V107.007Z" fill="#F20530"/>
<path d="M142.131 107.007H135.315V113.828H142.131V107.007Z" fill="#F20530"/>
<path opacity="0.4" d="M122.533 150.066H115.717V156.887H122.533V150.066Z" fill="#F20530"/>
<path opacity="0.8" d="M132.332 150.066H125.516V156.887H132.332V150.066Z" fill="#F20530"/>
<path d="M142.131 150.066H135.315V156.887H142.131V150.066Z" fill="#F20530"/>
<path d="M134.889 263.041C153.477 263.041 168.546 247.963 168.546 229.362C168.546 210.761 153.477 195.682 134.889 195.682C116.3 195.682 101.231 210.761 101.231 229.362C101.231 247.963 116.3 263.041 134.889 263.041Z" fill="#0E865E"/>
<path d="M129.776 255.794H119.551V274.126H129.776V255.794Z" fill="#0E865E"/>
<path d="M150.226 255.794H140.001V274.126H150.226V255.794Z" fill="#0E865E"/>
<path d="M128.072 277.536C132.778 277.536 136.593 276.105 136.593 274.339C136.593 272.573 132.778 271.142 128.072 271.142C123.366 271.142 119.551 272.573 119.551 274.339C119.551 276.105 123.366 277.536 128.072 277.536Z" fill="#0E865E"/>
<path d="M148.522 277.11C153.228 277.11 157.043 275.679 157.043 273.913C157.043 272.147 153.228 270.715 148.522 270.715C143.816 270.715 140.001 272.147 140.001 273.913C140.001 275.679 143.816 277.11 148.522 277.11Z" fill="#0E865E"/>
<path d="M135.741 232.346C142.094 232.346 147.244 227.193 147.244 220.835C147.244 214.478 142.094 209.325 135.741 209.325C129.388 209.325 124.238 214.478 124.238 220.835C124.238 227.193 129.388 232.346 135.741 232.346Z" fill="white"/>
<path d="M135.741 224.672C137.858 224.672 139.575 222.955 139.575 220.835C139.575 218.716 137.858 216.999 135.741 216.999C133.623 216.999 131.906 218.716 131.906 220.835C131.906 222.955 133.623 224.672 135.741 224.672Z" fill="#3F3D56"/>
<path d="M102.24 198.041C99.5223 185.862 108.21 173.556 121.644 170.554C135.078 167.552 148.171 174.992 150.889 187.171C153.606 199.35 144.703 203.842 131.269 206.843C117.835 209.845 104.958 210.22 102.24 198.041Z" fill="#6C63FF"/>
<path d="M166.456 222.645C175 218.985 180.996 213.843 179.848 211.158C178.7 208.474 170.843 209.265 162.298 212.924C153.754 216.584 147.758 221.726 148.906 224.411C150.054 227.095 157.911 226.304 166.456 222.645Z" fill="#0E865E"/>
<path d="M103.402 245.24C111.946 241.58 117.942 236.438 116.794 233.754C115.646 231.069 107.789 231.86 99.2442 235.52C90.6997 239.179 84.7038 244.322 85.8518 247.006C86.9999 249.69 94.8573 248.899 103.402 245.24Z" fill="#0E865E"/>
<path d="M154.487 239.167C154.487 242.464 146.005 248.973 136.593 248.973C127.181 248.973 118.273 242.89 118.273 239.594C118.273 236.297 127.181 237.036 136.593 237.036C146.005 237.036 154.487 235.871 154.487 239.167Z" fill="white"/>
</g>
<defs>
<clipPath id="clip0_40_15861">
<rect width="477" height="298" fill="white"/>
</clipPath>
</defs>
</svg>
