<svg viewBox="0 0 313 84" fill="none" xmlns="http://www.w3.org/2000/svg">
<path d="M91.294 55.79L96.586 28.28C99.89 28 102.606 27.86 104.734 27.86C106.862 27.86 108.612 27.958 109.984 28.154C111.356 28.322 112.504 28.644 113.428 29.12C115.276 30.016 116.2 31.696 116.2 34.16C116.2 35.588 115.584 36.904 114.352 38.108C113.204 39.2 112 39.872 110.74 40.124C112.084 40.348 113.232 40.964 114.184 41.972C115.192 43.036 115.696 44.394 115.696 46.046C115.696 49.238 114.506 51.772 112.126 53.648C109.746 55.496 106.218 56.42 101.542 56.42C98.322 56.42 94.906 56.21 91.294 55.79ZM100.618 53.354C100.87 53.382 101.024 53.396 101.08 53.396H101.458C103.754 53.396 105.392 52.64 106.372 51.128C107.1 49.952 107.464 48.286 107.464 46.13C107.464 44.982 107.086 44.1 106.33 43.484C105.602 42.868 104.398 42.532 102.718 42.476L100.618 53.354ZM109.102 34.202C109.102 31.878 107.982 30.716 105.742 30.716H105.364C105.252 30.716 105.112 30.73 104.944 30.758L103.264 39.62H103.684C107.296 39.536 109.102 37.73 109.102 34.202ZM127.612 56.84C121.452 56.84 118.372 53.942 118.372 48.146C118.372 44.03 119.506 40.642 121.774 37.982C124.182 35.154 127.472 33.74 131.644 33.74C134.668 33.74 136.95 34.44 138.49 35.84C140.03 37.24 140.8 39.41 140.8 42.35C140.8 46.83 139.596 50.372 137.188 52.976C134.836 55.552 131.644 56.84 127.612 56.84ZM128.704 38.57C128.368 39.326 128.06 40.278 127.78 41.426C127.528 42.546 127.234 44.002 126.898 45.794C126.562 47.586 126.394 49.588 126.394 51.8C126.394 52.528 126.506 53.13 126.73 53.606C126.982 54.082 127.43 54.32 128.074 54.32C128.718 54.32 129.236 54.166 129.628 53.858C130.048 53.55 130.412 53.032 130.72 52.304C131.28 51.016 131.784 49.182 132.232 46.802C132.68 44.394 132.918 42.672 132.946 41.636C133.002 40.6 133.03 39.704 133.03 38.948C133.03 38.164 132.918 37.52 132.694 37.016C132.47 36.512 132.036 36.26 131.392 36.26C130.776 36.26 130.258 36.456 129.838 36.848C129.418 37.24 129.04 37.814 128.704 38.57ZM161.037 56.84C157.649 56.84 155.955 55.524 155.955 52.892C155.983 52.164 156.109 51.184 156.333 49.952L157.089 46.088C157.845 42.448 158.223 40.222 158.223 39.41C158.223 37.786 157.747 36.974 156.795 36.974C155.199 36.974 153.981 39.06 153.141 43.232L150.663 56L142.221 56.84L146.589 34.538L153.477 33.74L152.805 37.856C154.121 35.112 156.795 33.74 160.827 33.74C162.787 33.74 164.173 34.16 164.985 35C165.825 35.812 166.245 37.142 166.245 38.99C166.245 40.726 165.797 43.624 164.901 47.684C164.481 49.504 164.271 50.764 164.271 51.464C164.271 52.136 164.453 52.668 164.817 53.06C165.209 53.452 165.685 53.676 166.245 53.732C165.965 54.684 165.335 55.44 164.355 56C163.403 56.56 162.297 56.84 161.037 56.84ZM178.759 56.84C172.599 56.84 169.519 53.942 169.519 48.146C169.519 44.03 170.653 40.642 172.921 37.982C175.329 35.154 178.619 33.74 182.791 33.74C185.815 33.74 188.097 34.44 189.637 35.84C191.177 37.24 191.947 39.41 191.947 42.35C191.947 46.83 190.743 50.372 188.335 52.976C185.983 55.552 182.791 56.84 178.759 56.84ZM179.851 38.57C179.515 39.326 179.207 40.278 178.927 41.426C178.675 42.546 178.381 44.002 178.045 45.794C177.709 47.586 177.541 49.588 177.541 51.8C177.541 52.528 177.653 53.13 177.877 53.606C178.129 54.082 178.577 54.32 179.221 54.32C179.865 54.32 180.383 54.166 180.775 53.858C181.195 53.55 181.559 53.032 181.867 52.304C182.427 51.016 182.931 49.182 183.379 46.802C183.827 44.394 184.065 42.672 184.093 41.636C184.149 40.6 184.177 39.704 184.177 38.948C184.177 38.164 184.065 37.52 183.841 37.016C183.617 36.512 183.183 36.26 182.539 36.26C181.923 36.26 181.405 36.456 180.985 36.848C180.565 37.24 180.187 37.814 179.851 38.57ZM193.871 53.984L199.079 26.6L207.605 25.76L206.303 32.186C205.995 33.502 205.645 34.622 205.253 35.546C205.869 34.762 206.849 34.216 208.193 33.908C208.585 33.796 209.019 33.74 209.495 33.74C212.099 33.74 214.115 34.538 215.543 36.134C216.971 37.702 217.685 40.012 217.685 43.064C217.685 47.04 216.551 50.274 214.283 52.766C211.847 55.482 208.417 56.84 203.993 56.84C200.941 56.84 198.267 56.336 195.971 55.328C195.159 54.964 194.459 54.516 193.871 53.984ZM202.313 53.606C202.901 54.11 203.559 54.362 204.287 54.362C205.015 54.362 205.589 54.222 206.009 53.942C206.429 53.662 206.793 53.242 207.101 52.682C207.941 51.17 208.697 48.104 209.369 43.484C209.565 42.168 209.663 40.852 209.663 39.536C209.663 38.22 209.509 37.352 209.201 36.932C208.921 36.512 208.501 36.302 207.941 36.302C206.233 36.302 205.099 37.968 204.539 41.3L202.313 53.606ZM229.372 56.84C223.212 56.84 220.132 53.942 220.132 48.146C220.132 44.03 221.266 40.642 223.534 37.982C225.942 35.154 229.232 33.74 233.404 33.74C236.428 33.74 238.71 34.44 240.25 35.84C241.79 37.24 242.56 39.41 242.56 42.35C242.56 46.83 241.356 50.372 238.948 52.976C236.596 55.552 233.404 56.84 229.372 56.84ZM230.464 38.57C230.128 39.326 229.82 40.278 229.54 41.426C229.288 42.546 228.994 44.002 228.658 45.794C228.322 47.586 228.154 49.588 228.154 51.8C228.154 52.528 228.266 53.13 228.49 53.606C228.742 54.082 229.19 54.32 229.834 54.32C230.478 54.32 230.996 54.166 231.388 53.858C231.808 53.55 232.172 53.032 232.48 52.304C233.04 51.016 233.544 49.182 233.992 46.802C234.44 44.394 234.678 42.672 234.706 41.636C234.762 40.6 234.79 39.704 234.79 38.948C234.79 38.164 234.678 37.52 234.454 37.016C234.23 36.512 233.796 36.26 233.152 36.26C232.536 36.26 232.018 36.456 231.598 36.848C231.178 37.24 230.8 37.814 230.464 38.57Z" fill="#27E8A7"/>
<circle cx="37" cy="41" r="37" fill="#27E8A7"/>
<path fill-rule="evenodd" clip-rule="evenodd" d="M17.8248 30.2713C17.8248 30.2713 15.5102 32.2298 15.5102 35.435C15.5102 35.435 16.2225 34.0107 17.2908 33.8324C17.2908 33.8324 17.4687 36.6811 15.6881 38.4621C15.6881 38.4621 13.9075 40.0647 15.5102 44.8723C15.5102 44.8723 14.7978 42.7356 16.4005 41.8452C16.4005 41.8452 18.0031 43.0917 17.1128 47.5431C17.1128 47.5431 18.3593 47.3652 19.4274 45.2285C19.4274 45.2285 20.4956 46.1187 19.7836 48.6116C19.7836 48.6116 17.8251 50.036 19.4274 53.2413C19.4274 53.2413 19.4274 51.1046 21.0301 50.3926C21.0301 50.3926 20.3177 53.0634 21.5642 55.9126C21.5642 55.9126 22.2766 56.6249 21.7421 59.1175C21.7421 59.1175 22.6323 59.1175 23.7006 58.0493C23.7006 58.0493 23.7006 61.4325 26.0152 62.6791C26.0152 62.6791 25.659 61.7888 25.8373 61.2547C25.8373 61.2547 27.0837 63.3914 28.1519 63.9255C28.1519 63.9255 27.974 63.5693 28.5081 63.0352C28.5081 63.0352 30.6448 64.2817 32.7815 67.1304C32.7815 67.1304 33.1377 68.1986 34.028 68.3769C34.028 68.3769 33.6718 67.3087 34.2059 66.9525C34.2059 66.9525 36.1644 67.1304 35.4524 69.8012C35.4524 69.8012 37.055 69.9791 37.589 67.4866C37.589 67.4866 38.8355 69.9795 39.7257 69.8012C39.1917 67.1304 40.7939 66.9525 40.7939 66.9525C41.328 67.3087 40.9718 68.3769 40.9718 68.3769C41.862 68.199 42.2182 67.1304 42.2182 67.1304C44.3549 64.2817 46.4917 63.0352 46.4917 63.0352C47.0258 63.5693 46.8479 63.9255 46.8479 63.9255C47.9161 63.3914 49.1625 61.2547 49.1625 61.2547C49.3404 61.7888 48.9846 62.6791 48.9846 62.6791C51.4775 61.4326 51.4775 58.0493 51.4775 58.0493C52.724 59.1175 53.6142 59.1175 53.6142 59.1175C53.0801 56.6246 53.7921 55.9126 53.7921 55.9126C55.0386 53.0638 54.3262 50.3926 54.3262 50.3926C55.7506 51.105 55.7506 53.2413 55.7506 53.2413C57.3532 50.0364 55.3944 48.6116 55.3944 48.6116C54.8603 46.1187 55.7506 45.2285 55.7506 45.2285C56.8187 47.3652 58.0652 47.5431 58.0652 47.5431C57.1749 43.0917 58.5992 41.8452 58.5992 41.8452C60.2019 42.7355 59.4895 44.8723 59.4895 44.8723C61.0922 40.0647 59.3116 38.4621 59.3116 38.4621C57.7089 36.6815 57.8873 33.8324 57.8873 33.8324C58.7775 34.0103 59.4899 35.435 59.4899 35.435C59.4899 32.2301 57.3532 30.2713 57.3532 30.2713C53.0797 7.12429 22.2762 7.30179 17.8245 30.2713H17.8248ZM37.5891 32.0519C37.4113 30.8054 36.521 28.1346 34.7404 27.0665C34.7404 27.0665 32.4258 25.108 27.7961 26.7103C24.5912 27.7784 23.3447 31.1617 26.1934 33.6546C26.1934 33.6546 23.8788 36.3254 24.4129 37.9281C25.1252 40.7768 28.1518 40.0648 30.2886 39.5308C30.2886 39.5308 28.508 41.6674 28.508 43.2697C28.508 43.2697 29.0421 49.5016 28.1519 50.3919C28.1519 50.3919 26.9054 53.0627 27.4395 54.6654C27.4395 54.6654 27.6174 56.0898 29.398 55.9119C30.2882 65.527 44.5321 65.8832 45.6012 55.9119C47.3818 56.0898 47.5597 54.6654 47.5597 54.6654C48.0938 53.0627 46.8473 50.3919 46.8473 50.3919C45.957 49.5017 46.4911 43.2697 46.4911 43.2697C46.4911 41.667 44.7105 39.5308 44.7105 39.5308C46.8472 40.0648 49.8743 40.7772 50.5863 37.9281C51.2987 36.3254 48.8057 33.6546 48.8057 33.6546C51.8327 31.1617 50.4084 27.7788 47.203 26.7103C42.5733 25.1076 40.2587 27.0665 40.2587 27.0665C38.8344 28.1346 37.9441 30.8054 37.5879 32.0519H37.5891Z" fill="black"/>
<path fill-rule="evenodd" clip-rule="evenodd" d="M41.8624 39.7082C41.8624 39.8861 41.8624 41.4888 40.6159 42.0228C34.384 45.406 44.8894 47.3645 41.8624 39.7082Z" fill="black"/>
<path fill-rule="evenodd" clip-rule="evenodd" d="M33.1375 39.7082C33.1375 39.8861 33.1375 41.4888 34.384 42.0228C40.6159 45.406 30.1105 47.3645 33.1375 39.7082Z" fill="black"/>
<path fill-rule="evenodd" clip-rule="evenodd" d="M43.2863 54.6659C42.3961 53.5977 43.2863 53.5977 40.2593 53.4194H34.9177C31.7127 53.5973 32.6031 53.5973 31.7127 54.6659C30.6446 55.9123 28.3296 55.5562 29.576 54.1318C29.7539 53.7756 30.4663 53.5977 30.4663 53.5977C32.4248 52.8854 42.5738 52.8854 44.5324 53.5977C44.5324 53.5977 45.2448 53.7756 45.4227 54.1318C46.6691 55.5562 44.3545 55.9124 43.286 54.6659H43.2863Z" fill="black"/>
<path fill-rule="evenodd" clip-rule="evenodd" d="M43.8211 31.5179C43.8211 31.5179 42.5746 31.5179 41.6844 33.2985C43.465 36.3255 45.2454 33.4764 46.3141 33.4764C47.2044 33.8325 45.4238 31.5179 43.8212 31.5179L43.8211 31.5179Z" fill="black"/>
<path fill-rule="evenodd" clip-rule="evenodd" d="M31.179 31.5179C31.179 31.5179 32.4254 31.5179 33.3157 33.2985C31.713 36.3255 29.7546 33.4764 28.686 33.4764C27.7957 33.8325 29.7541 31.5179 31.1789 31.5179L31.179 31.5179Z" fill="black"/>
<path fill-rule="evenodd" clip-rule="evenodd" d="M43.821 38.2841C41.6844 35.7912 40.0821 34.723 38.3011 36.6814C38.3011 36.6814 39.7255 35.7912 40.794 36.3252C42.0405 36.8593 42.5746 37.7496 43.821 38.2837V38.2841Z" fill="black"/>
<path fill-rule="evenodd" clip-rule="evenodd" d="M31.1789 38.2841C33.3156 35.7912 35.0962 34.723 37.0547 36.6814C37.0547 36.6814 35.452 35.7912 34.206 36.3252C32.9595 36.8593 32.4254 37.7496 31.1789 38.2837V38.2841Z" fill="black"/>
<path fill-rule="evenodd" clip-rule="evenodd" d="M43.6426 40.2427C41.862 37.2157 41.1497 36.6817 39.9036 38.9963C41.8621 37.3936 41.5063 38.2839 43.6426 40.2427Z" fill="black"/>
<path fill-rule="evenodd" clip-rule="evenodd" d="M31.3574 40.2427C33.138 37.2157 33.8503 36.6817 35.2747 38.9963C33.138 37.3936 33.4941 38.2839 31.3574 40.2427Z" fill="black"/>
<path fill-rule="evenodd" clip-rule="evenodd" d="M45.958 31.5178C43.6434 29.3811 40.6164 29.9152 40.6164 33.8324C41.8628 29.9152 43.4651 30.2714 45.958 31.5178Z" fill="black"/>
<path fill-rule="evenodd" clip-rule="evenodd" d="M29.0419 31.5178C31.3565 29.3811 34.3835 29.9152 34.3835 33.8324C33.1371 29.9152 31.5348 30.2714 29.0419 31.5178Z" fill="black"/>
<path fill-rule="evenodd" clip-rule="evenodd" d="M47.738 34.5445C47.5601 36.1472 46.8478 38.2835 45.0672 37.5716C46.6699 38.9959 48.0943 36.3251 47.738 34.5445Z" fill="black"/>
<path fill-rule="evenodd" clip-rule="evenodd" d="M27.2618 34.5445C27.4397 36.1472 28.1521 38.2835 29.9326 37.5716C28.3299 38.9959 26.9056 36.3251 27.2618 34.5445Z" fill="black"/>
<path fill-rule="evenodd" clip-rule="evenodd" d="M48.4502 29.5592C48.094 30.4495 47.0258 31.6959 46.3135 30.9836C47.0259 32.0517 48.272 30.6274 48.4502 29.5592Z" fill="black"/>
<path fill-rule="evenodd" clip-rule="evenodd" d="M49.3408 30.9834C49.1629 31.6957 48.2727 32.7639 47.5603 32.2298C48.2726 33.1201 49.3408 31.8736 49.3408 30.9834Z" fill="black"/>
<path fill-rule="evenodd" clip-rule="evenodd" d="M26.7273 29.5592C26.9052 30.4495 27.9738 31.6959 28.864 30.9836C27.9737 32.0517 26.7273 30.6274 26.7273 29.5592Z" fill="black"/>
<path fill-rule="evenodd" clip-rule="evenodd" d="M25.6591 30.9834C25.837 31.6957 26.7273 32.7639 27.4397 32.2298C26.7273 33.1201 25.6591 31.8736 25.6591 30.9834Z" fill="black"/>
<path fill-rule="evenodd" clip-rule="evenodd" d="M17.2903 29.7378C17.2903 29.7378 13.7292 31.5184 14.9757 37.7502C12.6611 33.655 11.4146 29.0253 17.2903 29.7378Z" fill="black"/>
<path fill-rule="evenodd" clip-rule="evenodd" d="M57.8871 30.2713C57.8871 30.2713 61.2702 32.0519 60.0238 38.2838C62.3384 34.1886 63.5849 29.5589 57.8871 30.2713Z" fill="black"/>
</svg>
