<svg viewBox="0 0 49 58" fill="none" xmlns="http://www.w3.org/2000/svg">
<path fill-rule="evenodd" clip-rule="evenodd" d="M4.82478 18.2713C4.82478 18.2713 2.51018 20.2298 2.51018 23.435C2.51018 23.435 3.22255 22.0107 4.29076 21.8324C4.29076 21.8324 4.46865 24.6811 2.68808 26.4621C2.68808 26.4621 0.907501 28.0647 2.51019 32.8723C2.51019 32.8723 1.79782 30.7356 3.40046 29.8452C3.40046 29.8452 5.00313 31.0917 4.11283 35.5431C4.11283 35.5431 5.35929 35.3652 6.42743 33.2285C6.42743 33.2285 7.49557 34.1187 6.78362 36.6116C6.78362 36.6116 4.82513 38.036 6.42743 41.2413C6.42743 41.2413 6.42743 39.1046 8.03011 38.3926C8.03011 38.3926 7.31773 41.0634 8.56418 43.9126C8.56418 43.9126 9.27656 44.6249 8.74208 47.1175C8.74208 47.1175 9.63235 47.1175 10.7006 46.0493C10.7006 46.0493 10.7006 49.4325 13.0152 50.6791C13.0152 50.6791 12.659 49.7888 12.8373 49.2547C12.8373 49.2547 14.0837 51.3914 15.1519 51.9255C15.1519 51.9255 14.974 51.5693 15.5081 51.0352C15.5081 51.0352 17.6448 52.2817 19.7815 55.1304C19.7815 55.1304 20.1377 56.1986 21.028 56.3769C21.028 56.3769 20.6718 55.3087 21.2059 54.9525C21.2059 54.9525 23.1644 55.1304 22.4524 57.8012C22.4524 57.8012 24.055 57.9791 24.589 55.4866C24.589 55.4866 25.8355 57.9795 26.7257 57.8012C26.1917 55.1304 27.7939 54.9525 27.7939 54.9525C28.328 55.3087 27.9718 56.3769 27.9718 56.3769C28.862 56.199 29.2182 55.1304 29.2182 55.1304C31.3549 52.2817 33.4917 51.0352 33.4917 51.0352C34.0258 51.5693 33.8479 51.9255 33.8479 51.9255C34.9161 51.3914 36.1625 49.2547 36.1625 49.2547C36.3404 49.7888 35.9846 50.6791 35.9846 50.6791C38.4775 49.4326 38.4775 46.0493 38.4775 46.0493C39.724 47.1175 40.6142 47.1175 40.6142 47.1175C40.0801 44.6246 40.7921 43.9126 40.7921 43.9126C42.0386 41.0638 41.3262 38.3926 41.3262 38.3926C42.7506 39.105 42.7506 41.2413 42.7506 41.2413C44.3532 38.0364 42.3944 36.6116 42.3944 36.6116C41.8603 34.1187 42.7506 33.2285 42.7506 33.2285C43.8187 35.3652 45.0652 35.5431 45.0652 35.5431C44.1749 31.0917 45.5992 29.8452 45.5992 29.8452C47.2019 30.7355 46.4895 32.8723 46.4895 32.8723C48.0922 28.0647 46.3116 26.4621 46.3116 26.4621C44.7089 24.6815 44.8873 21.8324 44.8873 21.8324C45.7775 22.0103 46.4899 23.435 46.4899 23.435C46.4899 20.2301 44.3532 18.2713 44.3532 18.2713C40.0797 -4.87571 9.2762 -4.69821 4.82449 18.2713H4.82478ZM24.5891 20.0519C24.4113 18.8054 23.521 16.1346 21.7404 15.0665C21.7404 15.0665 19.4258 13.108 14.7961 14.7103C11.5912 15.7784 10.3447 19.1617 13.1934 21.6546C13.1934 21.6546 10.8788 24.3254 11.4129 25.9281C12.1252 28.7768 15.1518 28.0648 17.2886 27.5308C17.2886 27.5308 15.508 29.6674 15.508 31.2697C15.508 31.2697 16.0421 37.5016 15.1519 38.3919C15.1519 38.3919 13.9054 41.0627 14.4395 42.6654C14.4395 42.6654 14.6174 44.0898 16.398 43.9119C17.2882 53.527 31.5321 53.8832 32.6012 43.9119C34.3818 44.0898 34.5597 42.6654 34.5597 42.6654C35.0938 41.0627 33.8473 38.3919 33.8473 38.3919C32.957 37.5017 33.4911 31.2697 33.4911 31.2697C33.4911 29.667 31.7105 27.5308 31.7105 27.5308C33.8472 28.0648 36.8743 28.7772 37.5863 25.9281C38.2987 24.3254 35.8057 21.6546 35.8057 21.6546C38.8327 19.1617 37.4084 15.7788 34.203 14.7103C29.5733 13.1076 27.2587 15.0665 27.2587 15.0665C25.8344 16.1346 24.9441 18.8054 24.5879 20.0519H24.5891Z" fill="black"/>
<path fill-rule="evenodd" clip-rule="evenodd" d="M28.8624 27.7082C28.8624 27.8861 28.8624 29.4888 27.6159 30.0228C21.384 33.406 31.8894 35.3645 28.8624 27.7082Z" fill="black"/>
<path fill-rule="evenodd" clip-rule="evenodd" d="M20.1375 27.7082C20.1375 27.8861 20.1375 29.4888 21.384 30.0228C27.6159 33.406 17.1105 35.3645 20.1375 27.7082Z" fill="black"/>
<path fill-rule="evenodd" clip-rule="evenodd" d="M30.2863 42.6659C29.3961 41.5977 30.2863 41.5977 27.2593 41.4194H21.9177C18.7127 41.5973 19.6031 41.5973 18.7127 42.6659C17.6446 43.9123 15.3296 43.5562 16.576 42.1318C16.7539 41.7756 17.4663 41.5977 17.4663 41.5977C19.4248 40.8854 29.5738 40.8854 31.5324 41.5977C31.5324 41.5977 32.2448 41.7756 32.4227 42.1318C33.6691 43.5562 31.3545 43.9124 30.286 42.6659H30.2863Z" fill="black"/>
<path fill-rule="evenodd" clip-rule="evenodd" d="M30.8211 19.5179C30.8211 19.5179 29.5746 19.5179 28.6844 21.2985C30.465 24.3255 32.2454 21.4764 33.3141 21.4764C34.2044 21.8325 32.4238 19.5179 30.8212 19.5179L30.8211 19.5179Z" fill="black"/>
<path fill-rule="evenodd" clip-rule="evenodd" d="M18.179 19.5179C18.179 19.5179 19.4254 19.5179 20.3157 21.2985C18.713 24.3255 16.7546 21.4764 15.686 21.4764C14.7957 21.8325 16.7541 19.5179 18.1789 19.5179L18.179 19.5179Z" fill="black"/>
<path fill-rule="evenodd" clip-rule="evenodd" d="M30.821 26.2841C28.6844 23.7912 27.0821 22.723 25.3011 24.6814C25.3011 24.6814 26.7255 23.7912 27.794 24.3252C29.0405 24.8593 29.5746 25.7496 30.821 26.2837V26.2841Z" fill="black"/>
<path fill-rule="evenodd" clip-rule="evenodd" d="M18.1789 26.2841C20.3156 23.7912 22.0962 22.723 24.0547 24.6814C24.0547 24.6814 22.452 23.7912 21.206 24.3252C19.9595 24.8593 19.4254 25.7496 18.1789 26.2837V26.2841Z" fill="black"/>
<path fill-rule="evenodd" clip-rule="evenodd" d="M30.6426 28.2427C28.862 25.2157 28.1497 24.6817 26.9036 26.9963C28.8621 25.3936 28.5063 26.2839 30.6426 28.2427Z" fill="black"/>
<path fill-rule="evenodd" clip-rule="evenodd" d="M18.3574 28.2427C20.138 25.2157 20.8503 24.6817 22.2747 26.9963C20.138 25.3936 20.4941 26.2839 18.3574 28.2427Z" fill="black"/>
<path fill-rule="evenodd" clip-rule="evenodd" d="M32.958 19.5178C30.6434 17.3811 27.6164 17.9152 27.6164 21.8324C28.8628 17.9152 30.4651 18.2714 32.958 19.5178Z" fill="black"/>
<path fill-rule="evenodd" clip-rule="evenodd" d="M16.0419 19.5178C18.3565 17.3811 21.3835 17.9152 21.3835 21.8324C20.1371 17.9152 18.5348 18.2714 16.0419 19.5178Z" fill="black"/>
<path fill-rule="evenodd" clip-rule="evenodd" d="M34.738 22.5445C34.5601 24.1472 33.8478 26.2835 32.0672 25.5716C33.6699 26.9959 35.0943 24.3251 34.738 22.5445Z" fill="black"/>
<path fill-rule="evenodd" clip-rule="evenodd" d="M14.2618 22.5445C14.4397 24.1472 15.1521 26.2835 16.9326 25.5716C15.3299 26.9959 13.9056 24.3251 14.2618 22.5445Z" fill="black"/>
<path fill-rule="evenodd" clip-rule="evenodd" d="M35.4502 17.5592C35.094 18.4495 34.0258 19.6959 33.3135 18.9836C34.0259 20.0517 35.272 18.6274 35.4502 17.5592Z" fill="black"/>
<path fill-rule="evenodd" clip-rule="evenodd" d="M36.3408 18.9834C36.1629 19.6957 35.2727 20.7639 34.5603 20.2298C35.2726 21.1201 36.3408 19.8736 36.3408 18.9834Z" fill="black"/>
<path fill-rule="evenodd" clip-rule="evenodd" d="M13.7273 17.5592C13.9052 18.4495 14.9738 19.6959 15.864 18.9836C14.9737 20.0517 13.7273 18.6274 13.7273 17.5592Z" fill="black"/>
<path fill-rule="evenodd" clip-rule="evenodd" d="M12.6591 18.9834C12.837 19.6957 13.7273 20.7639 14.4397 20.2298C13.7273 21.1201 12.6591 19.8736 12.6591 18.9834Z" fill="black"/>
<path fill-rule="evenodd" clip-rule="evenodd" d="M4.29028 17.7378C4.29028 17.7378 0.72923 19.5184 1.97568 25.7502C-0.338913 21.655 -1.58537 17.0253 4.29028 17.7378Z" fill="black"/>
<path fill-rule="evenodd" clip-rule="evenodd" d="M44.8871 18.2713C44.8871 18.2713 48.2702 20.0519 47.0238 26.2838C49.3384 22.1886 50.5849 17.5589 44.8871 18.2713Z" fill="black"/>
</svg>
