<svg width="21" height="20" viewBox="0 0 21 20" fill="none" xmlns="http://www.w3.org/2000/svg">
<path d="M15.1094 16.6094C15.5156 16.2031 15.9844 16 16.5156 16C17.0469 16 17.5 16.2031 17.875 16.6094C18.2812 17.0156 18.4844 17.4844 18.4844 18.0156C18.4844 18.5469 18.2812 19.0156 17.875 19.4219C17.5 19.7969 17.0469 19.9844 16.5156 19.9844C15.9844 19.9844 15.5156 19.7969 15.1094 19.4219C14.7031 19.0156 14.5 18.5469 14.5 18.0156C14.5 17.4844 14.7031 17.0156 15.1094 16.6094ZM0.484375 0.015625H3.76562L4.70312 1.98438H19.5156C19.7969 1.98438 20.0312 2.09375 20.2188 2.3125C20.4062 2.5 20.5 2.73438 20.5 3.01562C20.5 3.04688 20.4531 3.20312 20.3594 3.48438L16.7969 9.95312C16.4219 10.6406 15.8438 10.9844 15.0625 10.9844H7.60938L6.71875 12.625L6.67188 12.7656C6.67188 12.9219 6.75 13 6.90625 13H18.4844V15.0156H6.48438C5.95312 15.0156 5.48438 14.8125 5.07812 14.4062C4.70312 14 4.51562 13.5312 4.51562 13C4.51562 12.6875 4.59375 12.375 4.75 12.0625L6.10938 9.57812L2.5 1.98438H0.484375V0.015625ZM5.07812 16.6094C5.48438 16.2031 5.95312 16 6.48438 16C7.01562 16 7.48438 16.2031 7.89062 16.6094C8.29688 17.0156 8.5 17.4844 8.5 18.0156C8.5 18.5469 8.29688 19.0156 7.89062 19.4219C7.48438 19.7969 7.01562 19.9844 6.48438 19.9844C5.95312 19.9844 5.48438 19.7969 5.07812 19.4219C4.70312 19.0156 4.51562 18.5469 4.51562 18.0156C4.51562 17.4844 4.70312 17.0156 5.07812 16.6094Z" fill="white"/>
</svg>
