<svg viewBox="0 0 21 21" fill="none" xmlns="http://www.w3.org/2000/svg">
  <path d="M13.5469 9.75C14.1719 9.125 14.4844 8.375 14.4844 7.5C14.4844 6.40625 14.0938 5.46875 13.3125 4.6875C12.5312 3.90625 11.5938 3.51562 10.5 3.51562C9.40625 3.51562 8.46875 3.90625 7.6875 4.6875C6.90625 5.46875 6.51562 6.40625 6.51562 7.5H8.48438C8.48438 6.96875 8.6875 6.5 9.09375 6.09375C9.5 5.6875 9.96875 5.48438 10.5 5.48438C11.0312 5.48438 11.5 5.6875 11.9062 6.09375C12.3125 6.5 12.5156 6.96875 12.5156 7.5C12.5156 8.03125 12.3125 8.5 11.9062 8.90625L10.6875 10.1719C9.90625 11.0156 9.51562 11.9531 9.51562 12.9844V13.5H11.4844C11.4844 12.4688 11.875 11.5312 12.6562 10.6875L13.5469 9.75ZM11.4844 17.4844V15.5156H9.51562V17.4844H11.4844ZM3.42188 3.46875C5.39062 1.5 7.75 0.515625 10.5 0.515625C13.25 0.515625 15.5938 1.5 17.5312 3.46875C19.5 5.40625 20.4844 7.75 20.4844 10.5C20.4844 13.25 19.5 15.6094 17.5312 17.5781C15.5938 19.5156 13.25 20.4844 10.5 20.4844C7.75 20.4844 5.39062 19.5156 3.42188 17.5781C1.48438 15.6094 0.515625 13.25 0.515625 10.5C0.515625 7.75 1.48438 5.40625 3.42188 3.46875Z" fill="white" />
</svg>
