<svg width="74" height="74" viewBox="0 0 74 74" fill="none" xmlns="http://www.w3.org/2000/svg">
<circle cx="37" cy="37" r="37" fill="#27E8A7"/>
<path fill-rule="evenodd" clip-rule="evenodd" d="M17.8248 26.2713C17.8248 26.2713 15.5102 28.2298 15.5102 31.435C15.5102 31.435 16.2226 30.0107 17.2908 29.8324C17.2908 29.8324 17.4686 32.6811 15.6881 34.4621C15.6881 34.4621 13.9075 36.0647 15.5102 40.8723C15.5102 40.8723 14.7978 38.7356 16.4005 37.8452C16.4005 37.8452 18.0031 39.0917 17.1128 43.5431C17.1128 43.5431 18.3593 43.3652 19.4274 41.2285C19.4274 41.2285 20.4956 42.1187 19.7836 44.6116C19.7836 44.6116 17.8251 46.036 19.4274 49.2413C19.4274 49.2413 19.4274 47.1046 21.0301 46.3926C21.0301 46.3926 20.3177 49.0634 21.5642 51.9126C21.5642 51.9126 22.2766 52.6249 21.7421 55.1175C21.7421 55.1175 22.6323 55.1175 23.7006 54.0493C23.7006 54.0493 23.7006 57.4325 26.0152 58.6791C26.0152 58.6791 25.659 57.7888 25.8373 57.2547C25.8373 57.2547 27.0837 59.3914 28.1519 59.9255C28.1519 59.9255 27.974 59.5693 28.5081 59.0352C28.5081 59.0352 30.6448 60.2817 32.7815 63.1304C32.7815 63.1304 33.1377 64.1986 34.028 64.3769C34.028 64.3769 33.6718 63.3087 34.2059 62.9525C34.2059 62.9525 36.1644 63.1304 35.4524 65.8012C35.4524 65.8012 37.055 65.9791 37.589 63.4866C37.589 63.4866 38.8355 65.9795 39.7257 65.8012C39.1917 63.1304 40.7939 62.9525 40.7939 62.9525C41.328 63.3087 40.9718 64.3769 40.9718 64.3769C41.862 64.199 42.2182 63.1304 42.2182 63.1304C44.3549 60.2817 46.4917 59.0352 46.4917 59.0352C47.0258 59.5693 46.8479 59.9255 46.8479 59.9255C47.9161 59.3914 49.1625 57.2547 49.1625 57.2547C49.3404 57.7888 48.9846 58.6791 48.9846 58.6791C51.4775 57.4326 51.4775 54.0493 51.4775 54.0493C52.724 55.1175 53.6142 55.1175 53.6142 55.1175C53.0801 52.6246 53.7921 51.9126 53.7921 51.9126C55.0386 49.0638 54.3262 46.3926 54.3262 46.3926C55.7506 47.105 55.7506 49.2413 55.7506 49.2413C57.3532 46.0364 55.3944 44.6116 55.3944 44.6116C54.8603 42.1187 55.7506 41.2285 55.7506 41.2285C56.8187 43.3652 58.0652 43.5431 58.0652 43.5431C57.1749 39.0917 58.5992 37.8452 58.5992 37.8452C60.2019 38.7355 59.4895 40.8723 59.4895 40.8723C61.0922 36.0647 59.3116 34.4621 59.3116 34.4621C57.7089 32.6815 57.8873 29.8324 57.8873 29.8324C58.7775 30.0103 59.4899 31.435 59.4899 31.435C59.4899 28.2301 57.3532 26.2713 57.3532 26.2713C53.0797 3.12429 22.2762 3.30179 17.8245 26.2713H17.8248ZM37.5891 28.0519C37.4113 26.8054 36.521 24.1346 34.7404 23.0665C34.7404 23.0665 32.4258 21.108 27.7961 22.7103C24.5912 23.7784 23.3447 27.1617 26.1934 29.6546C26.1934 29.6546 23.8788 32.3254 24.4129 33.9281C25.1252 36.7768 28.1518 36.0648 30.2886 35.5308C30.2886 35.5308 28.508 37.6674 28.508 39.2697C28.508 39.2697 29.0421 45.5016 28.1519 46.3919C28.1519 46.3919 26.9054 49.0627 27.4395 50.6654C27.4395 50.6654 27.6174 52.0898 29.398 51.9119C30.2882 61.527 44.5321 61.8832 45.6012 51.9119C47.3818 52.0898 47.5597 50.6654 47.5597 50.6654C48.0937 49.0627 46.8473 46.3919 46.8473 46.3919C45.957 45.5017 46.4911 39.2697 46.4911 39.2697C46.4911 37.667 44.7105 35.5308 44.7105 35.5308C46.8472 36.0648 49.8743 36.7772 50.5863 33.9281C51.2987 32.3254 48.8057 29.6546 48.8057 29.6546C51.8327 27.1617 50.4084 23.7788 47.203 22.7103C42.5733 21.1076 40.2587 23.0665 40.2587 23.0665C38.8344 24.1346 37.9441 26.8054 37.5879 28.0519H37.5891Z" fill="black"/>
<path fill-rule="evenodd" clip-rule="evenodd" d="M41.8624 35.7083C41.8624 35.8861 41.8624 37.4888 40.6159 38.0229C34.384 41.406 44.8894 43.3645 41.8624 35.7083Z" fill="black"/>
<path fill-rule="evenodd" clip-rule="evenodd" d="M33.1375 35.7083C33.1375 35.8861 33.1375 37.4888 34.384 38.0229C40.6159 41.406 30.1105 43.3645 33.1375 35.7083Z" fill="black"/>
<path fill-rule="evenodd" clip-rule="evenodd" d="M43.2863 50.6659C42.3961 49.5978 43.2863 49.5978 40.2593 49.4195H34.9177C31.7127 49.5974 32.6031 49.5974 31.7127 50.6659C30.6446 51.9124 28.3296 51.5562 29.576 50.1318C29.7539 49.7757 30.4663 49.5978 30.4663 49.5978C32.4248 48.8854 42.5738 48.8854 44.5324 49.5978C44.5324 49.5978 45.2448 49.7757 45.4227 50.1318C46.6691 51.5562 44.3545 51.9124 43.286 50.6659H43.2863Z" fill="black"/>
<path fill-rule="evenodd" clip-rule="evenodd" d="M43.8211 27.5179C43.8211 27.5179 42.5746 27.5179 41.6844 29.2985C43.465 32.3255 45.2454 29.4764 46.3141 29.4764C47.2044 29.8325 45.4238 27.5179 43.8212 27.5179L43.8211 27.5179Z" fill="black"/>
<path fill-rule="evenodd" clip-rule="evenodd" d="M31.179 27.5179C31.179 27.5179 32.4254 27.5179 33.3157 29.2985C31.713 32.3255 29.7546 29.4764 28.686 29.4764C27.7957 29.8325 29.7541 27.5179 31.1789 27.5179L31.179 27.5179Z" fill="black"/>
<path fill-rule="evenodd" clip-rule="evenodd" d="M43.821 34.2841C41.6844 31.7912 40.0821 30.7231 38.3011 32.6815C38.3011 32.6815 39.7255 31.7912 40.794 32.3253C42.0405 32.8594 42.5746 33.7496 43.821 34.2837V34.2841Z" fill="black"/>
<path fill-rule="evenodd" clip-rule="evenodd" d="M31.1789 34.2841C33.3156 31.7912 35.0962 30.7231 37.0547 32.6815C37.0547 32.6815 35.452 31.7912 34.206 32.3253C32.9595 32.8594 32.4254 33.7496 31.1789 34.2837V34.2841Z" fill="black"/>
<path fill-rule="evenodd" clip-rule="evenodd" d="M43.6426 36.2427C41.862 33.2157 41.1497 32.6816 39.9036 34.9962C41.8621 33.3936 41.5063 34.2839 43.6426 36.2427Z" fill="black"/>
<path fill-rule="evenodd" clip-rule="evenodd" d="M31.3574 36.2427C33.138 33.2157 33.8503 32.6816 35.2747 34.9962C33.138 33.3936 33.4941 34.2839 31.3574 36.2427Z" fill="black"/>
<path fill-rule="evenodd" clip-rule="evenodd" d="M45.958 27.5178C43.6434 25.3811 40.6164 25.9151 40.6164 29.8324C41.8628 25.9151 43.4651 26.2713 45.958 27.5178Z" fill="black"/>
<path fill-rule="evenodd" clip-rule="evenodd" d="M29.0419 27.5178C31.3565 25.3811 34.3835 25.9151 34.3835 29.8324C33.1371 25.9151 31.5348 26.2713 29.0419 27.5178Z" fill="black"/>
<path fill-rule="evenodd" clip-rule="evenodd" d="M47.738 30.5446C47.5601 32.1472 46.8478 34.2835 45.0672 33.5716C46.6699 34.996 48.0943 32.3251 47.738 30.5446Z" fill="black"/>
<path fill-rule="evenodd" clip-rule="evenodd" d="M27.2618 30.5446C27.4397 32.1472 28.1521 34.2835 29.9326 33.5716C28.3299 34.996 26.9056 32.3251 27.2618 30.5446Z" fill="black"/>
<path fill-rule="evenodd" clip-rule="evenodd" d="M48.4502 25.5592C48.094 26.4495 47.0258 27.6959 46.3135 26.9836C47.0259 28.0517 48.272 26.6274 48.4502 25.5592Z" fill="black"/>
<path fill-rule="evenodd" clip-rule="evenodd" d="M49.3408 26.9834C49.1629 27.6958 48.2727 28.764 47.5603 28.2299C48.2726 29.1201 49.3408 27.8737 49.3408 26.9834Z" fill="black"/>
<path fill-rule="evenodd" clip-rule="evenodd" d="M26.7273 25.5592C26.9052 26.4495 27.9738 27.6959 28.864 26.9836C27.9737 28.0517 26.7273 26.6274 26.7273 25.5592Z" fill="black"/>
<path fill-rule="evenodd" clip-rule="evenodd" d="M25.6591 26.9834C25.837 27.6958 26.7273 28.764 27.4397 28.2299C26.7273 29.1201 25.6591 27.8737 25.6591 26.9834Z" fill="black"/>
<path fill-rule="evenodd" clip-rule="evenodd" d="M17.2903 25.7378C17.2903 25.7378 13.7292 27.5184 14.9757 33.7502C12.6611 29.655 11.4146 25.0253 17.2903 25.7378V25.7378Z" fill="black"/>
<path fill-rule="evenodd" clip-rule="evenodd" d="M57.8871 26.2713C57.8871 26.2713 61.2702 28.0519 60.0238 34.2837C62.3384 30.1886 63.5849 25.5589 57.8871 26.2713V26.2713Z" fill="black"/>
</svg>
