<svg viewBox="0 0 22 18" fill="none" xmlns="http://www.w3.org/2000/svg">
<path d="M17.9844 15.9844H3.96875V9.98438H4.20312C5.14062 9.98438 5.89062 9.67188 6.45312 9.04688C7.07812 9.67188 7.82812 9.98438 8.70312 9.98438C9.54688 9.98438 10.3125 9.67188 11 9.04688C11.625 9.67188 12.3594 9.98438 13.2031 9.98438C14.1406 9.98438 14.9219 9.67188 15.5469 9.04688C16.1094 9.67188 16.8438 9.98438 17.75 9.98438H17.9844V15.9844ZM18.9688 6.375C19.0625 6.8125 18.9688 7.20312 18.6875 7.54688C18.4688 7.85938 18.1562 8.01562 17.75 8.01562C17.0938 8.01562 16.7031 7.625 16.5781 6.84375L15.9688 2.01562H17.9375L18.9688 6.375ZM14.5156 6.65625C14.5156 7 14.4062 7.3125 14.1875 7.59375C13.9375 7.875 13.6406 8.01562 13.2969 8.01562C12.9219 8.01562 12.6094 7.89062 12.3594 7.64062C12.1094 7.35938 11.9844 7.04688 11.9844 6.70312V2.01562H13.9531L14.5156 6.51562V6.65625ZM10.0156 2.01562V6.70312C10.0156 7.04688 9.89062 7.35938 9.64062 7.64062C9.39062 7.89062 9.10938 8.01562 8.79688 8.01562C8.39062 8.01562 8.0625 7.875 7.8125 7.59375C7.53125 7.28125 7.42188 6.92188 7.48438 6.51562L8.04688 2.01562H10.0156ZM4.10938 1.96875L6.03125 2.01562L5.42188 6.84375C5.39062 7.15625 5.26562 7.4375 5.04688 7.6875C4.82812 7.90625 4.5625 8.01562 4.25 8.01562C3.875 8.01562 3.5625 7.85938 3.3125 7.54688C3.03125 7.20312 2.9375 6.8125 3.03125 6.375L4.10938 1.96875ZM1.10938 5.90625C0.859375 7 1.0625 7.95312 1.71875 8.76562L2 9.04688V15.9844C2 16.5156 2.20312 16.9844 2.60938 17.3906C3.01562 17.7969 3.48438 18 4.01562 18H17.9844C18.5156 18 18.9844 17.7969 19.3906 17.3906C19.7969 16.9844 20 16.5156 20 15.9844V9.04688L20.2812 8.76562C20.9375 7.95312 21.1406 7 20.8906 5.90625L19.8594 1.5C19.7656 1.0625 19.5312 0.703125 19.1562 0.421875C18.7812 0.140625 18.375 0 17.9375 0H4.0625C3.625 0 3.23438 0.140625 2.89062 0.421875C2.51562 0.703125 2.26562 1.0625 2.14062 1.5L1.10938 5.90625Z" fill="#17181B"/>
</svg>
