<svg width="20" height="20" viewBox="0 0 20 20" fill="none" xmlns="http://www.w3.org/2000/svg">
<path d="M19.4219 9.39062L10.5625 0.578125C10.1875 0.203125 9.71875 0.015625 9.15625 0.015625H1.98438C1.45312 0.015625 0.984375 0.21875 0.578125 0.625C0.203125 1 0.015625 1.45312 0.015625 1.98438V9.15625C0.015625 9.71875 0.203125 10.1875 0.578125 10.5625L9.4375 19.4219C9.8125 19.7969 10.2812 19.9844 10.8438 19.9844C11.4062 19.9844 11.875 19.7969 12.25 19.4219L19.4219 12.25C19.7969 11.8438 19.9844 11.375 19.9844 10.8438C19.9844 10.2812 19.7969 9.79688 19.4219 9.39062ZM4.51562 6.01562C4.07812 6.01562 3.71875 5.875 3.4375 5.59375C3.15625 5.28125 3.01562 4.92188 3.01562 4.51562C3.01562 4.07812 3.15625 3.71875 3.4375 3.4375C3.71875 3.15625 4.07812 3.01562 4.51562 3.01562C4.92188 3.01562 5.26562 3.15625 5.54688 3.4375C5.85938 3.71875 6.01562 4.07812 6.01562 4.51562C6.01562 4.92188 5.85938 5.28125 5.54688 5.59375C5.26562 5.875 4.92188 6.01562 4.51562 6.01562Z" fill="white"/>
</svg>
