<svg viewBox="0 0 36 39" fill="none" xmlns="http://www.w3.org/2000/svg">
<path d="M33.9375 8.84375L18 0.03125L2.0625 8.84375L12.1875 14.4688C12.9375 13.7188 13.8125 13.125 14.8125 12.6875C15.8125 12.25 16.875 12.0312 18 12.0312C19.125 12.0312 20.1875 12.25 21.1875 12.6875C22.1875 13.125 23.0625 13.7188 23.8125 14.4688L33.9375 8.84375ZM13.9688 20C13.9688 18.875 14.3438 17.9375 15.0938 17.1875C15.9062 16.375 16.875 15.9688 18 15.9688C19.125 15.9688 20.0625 16.375 20.8125 17.1875C21.625 17.9375 22.0312 18.875 22.0312 20C22.0312 21.125 21.625 22.0938 20.8125 22.9062C20.0625 23.6562 19.125 24.0312 18 24.0312C16.875 24.0312 15.9062 23.6562 15.0938 22.9062C14.3438 22.0938 13.9688 21.125 13.9688 20ZM16.0312 38.8438L0 30.0312V12.3125L10.2188 17.9375C10.0938 18.5625 10.0312 19.25 10.0312 20C10.0312 21.875 10.5938 23.5312 11.7188 24.9688C12.8438 26.4062 14.2812 27.3438 16.0312 27.7812V38.8438ZM19.9688 38.8438V27.7812C21.7188 27.3438 23.1562 26.4062 24.2812 24.9688C25.4062 23.5312 25.9688 21.875 25.9688 20C25.9688 19.25 25.9062 18.5625 25.7812 17.9375L36 12.3125V30.0312L19.9688 38.8438Z" fill="white"/>
</svg>
